<?xml version="1.0" encoding="UTF-8" standalone="no"?>
<!-- Created with Inkscape (http://www.inkscape.org/) -->

<svg
   xmlns:dc="http://purl.org/dc/elements/1.1/"
   xmlns:cc="http://creativecommons.org/ns#"
   xmlns:rdf="http://www.w3.org/1999/02/22-rdf-syntax-ns#"
   xmlns:svg="http://www.w3.org/2000/svg"
   xmlns="http://www.w3.org/2000/svg"
   xmlns:sodipodi="http://sodipodi.sourceforge.net/DTD/sodipodi-0.dtd"
   xmlns:inkscape="http://www.inkscape.org/namespaces/inkscape"
   width="120mm"
   height="120mm"
   viewBox="0 0 425.19685 425.19685"
   id="svg88293"
   version="1.1"
   inkscape:version="0.91 r13725"
   sodipodi:docname="subte.svg">
  <defs
     id="defs88295">
    <clipPath
       clipPathUnits="userSpaceOnUse"
       id="clipPath81598">
      <path
         d="m 0,1686.614 1388.976,0 L 1388.976,0 0,0 0,1686.614 Z"
         id="path81600"
         inkscape:connector-curvature="0" />
    </clipPath>
  </defs>
  <sodipodi:namedview
     id="base"
     pagecolor="#ffffff"
     bordercolor="#666666"
     borderopacity="1.0"
     inkscape:pageopacity="0.0"
     inkscape:pageshadow="2"
     inkscape:zoom="0.5"
     inkscape:cx="306.50705"
     inkscape:cy="548.59065"
     inkscape:document-units="px"
     inkscape:current-layer="layer1"
     showgrid="false"
     inkscape:window-width="1920"
     inkscape:window-height="1031"
     inkscape:window-x="0"
     inkscape:window-y="25"
     inkscape:window-maximized="1" />
  <metadata
     id="metadata88298">
    <rdf:RDF>
      <cc:Work
         rdf:about="">
        <dc:format>image/svg+xml</dc:format>
        <dc:type
           rdf:resource="http://purl.org/dc/dcmitype/StillImage" />
        <dc:title></dc:title>
      </cc:Work>
    </rdf:RDF>
  </metadata>
  <g
     inkscape:label="Layer 1"
     inkscape:groupmode="layer"
     id="layer1"
     transform="translate(0,-627.16535)">
    <g
       id="g90253"
       transform="matrix(2,0,0,2,-563.41016,-201.00731)">
      <g
         id="g87660"
         transform="matrix(1.25,0,0,-1.25,488.53578,521.00731)">
        <path
           d="m 0,0 c 0,-44.679 -36.221,-80.902 -80.903,-80.902 -44.68,0 -80.898,36.223 -80.898,80.902 0,44.682 36.218,80.902 80.898,80.902 C -36.221,80.902 0,44.682 0,0"
           style="fill:#f6cd19;fill-opacity:1;fill-rule:nonzero;stroke:none"
           id="path87662"
           inkscape:connector-curvature="0" />
      </g>
      <g
         id="g87664"
         transform="matrix(1.25,0,0,-1.25,317.83865,552.25431)">
        <path
           d="M 0,0 1.921,0 C 2.632,0 3.25,0.23 3.25,1.077 3.25,1.911 2.722,2.245 1.955,2.245 L 0,2.245 0,0 Z m 0,3.47 1.82,0 c 0.628,0 1.097,0.287 1.097,0.971 0,0.779 -0.596,0.94 -1.234,0.94 L 0,5.381 0,3.47 Z m -1.8,3.309 3.848,0 c 1.556,0 2.608,-0.505 2.608,-2.028 0,-0.8 -0.399,-1.362 -1.109,-1.706 0.995,-0.287 1.5,-1.051 1.5,-2.071 0,-1.66 -1.409,-2.37 -2.885,-2.37 l -3.962,0 0,8.175 z"
           style="fill:#181817;fill-opacity:1;fill-rule:nonzero;stroke:none"
           id="path87666"
           inkscape:connector-curvature="0" />
      </g>
      <g
         id="g87668"
         transform="matrix(1.25,0,0,-1.25,332.53015,553.99893)">
        <path
           d="m 0,0 -1.543,0 0,0.825 -0.034,0 C -1.99,0.161 -2.701,-0.16 -3.388,-0.16 c -1.726,0 -2.164,0.973 -2.164,2.439 l 0,3.638 1.626,0 0,-3.341 c 0,-0.973 0.288,-1.455 1.041,-1.455 0.883,0 1.259,0.492 1.259,1.694 l 0,3.102 L 0,5.917 0,0 Z"
           style="fill:#181817;fill-opacity:1;fill-rule:nonzero;stroke:none"
           id="path87670"
           inkscape:connector-curvature="0" />
      </g>
      <g
         id="g87672"
         transform="matrix(1.25,0,0,-1.25,339.19778,549.50631)">
        <path
           d="m 0,0 c -0.148,0.826 -0.504,1.258 -1.292,1.258 -1.033,0 -1.33,-0.8 -1.353,-1.258 L 0,0 Z m -2.645,-1.031 c 0.046,-1.03 0.55,-1.499 1.454,-1.499 0.654,0 1.179,0.402 1.282,0.769 l 1.433,0 c -0.46,-1.398 -1.433,-1.994 -2.771,-1.994 -1.866,0 -3.023,1.282 -3.023,3.115 0,1.774 1.225,3.123 3.023,3.123 2.013,0 2.986,-1.691 2.873,-3.514 l -4.271,0 z"
           style="fill:#181817;fill-opacity:1;fill-rule:nonzero;stroke:none"
           id="path87674"
           inkscape:connector-curvature="0" />
      </g>
      <g
         id="g87676"
         transform="matrix(1.25,0,0,-1.25,342.57365,546.60306)">
        <path
           d="m 0,0 1.546,0 0,-0.822 0.035,0 c 0.41,0.663 1.121,0.983 1.811,0.983 1.725,0 2.161,-0.974 2.161,-2.437 l 0,-3.641 -1.628,0 0,3.343 c 0,0.974 -0.286,1.455 -1.04,1.455 -0.881,0 -1.259,-0.494 -1.259,-1.696 l 0,-3.102 L 0,-5.917 0,0 Z"
           style="fill:#181817;fill-opacity:1;fill-rule:nonzero;stroke:none"
           id="path87678"
           inkscape:connector-curvature="0" />
      </g>
      <g
         id="g87680"
         transform="matrix(1.25,0,0,-1.25,354.79228,552.66856)">
        <path
           d="M 0,0 C 1.113,0 1.443,0.948 1.443,1.89 1.443,2.841 1.113,3.788 0,3.788 -1.098,3.788 -1.429,2.841 -1.429,1.89 -1.429,0.948 -1.098,0 0,0 m 0,5.013 c 1.867,0 3.068,-1.235 3.068,-3.123 0,-1.88 -1.201,-3.115 -3.068,-3.115 -1.854,0 -3.056,1.235 -3.056,3.115 0,1.888 1.202,3.123 3.056,3.123"
           style="fill:#181817;fill-opacity:1;fill-rule:nonzero;stroke:none"
           id="path87682"
           inkscape:connector-curvature="0" />
      </g>
      <g
         id="g87684"
         transform="matrix(1.25,0,0,-1.25,361.66203,551.59718)">
        <path
           d="m 0,0 c 0.009,-0.71 0.606,-0.994 1.247,-0.994 0.468,0 1.065,0.181 1.065,0.753 0,0.492 -0.676,0.663 -1.845,0.918 -0.936,0.206 -1.877,0.537 -1.877,1.581 0,1.51 1.306,1.898 2.578,1.898 1.292,0 2.48,-0.432 2.609,-1.889 l -1.546,0 C 2.185,2.897 1.702,3.068 1.122,3.068 0.755,3.068 0.216,3.001 0.216,2.519 0.216,1.937 1.133,1.857 2.06,1.639 3.007,1.421 3.937,1.077 3.937,-0.023 c 0,-1.554 -1.352,-2.059 -2.703,-2.059 -1.37,0 -2.713,0.515 -2.781,2.082 L 0,0 Z"
           style="fill:#181817;fill-opacity:1;fill-rule:nonzero;stroke:none"
           id="path87686"
           inkscape:connector-curvature="0" />
      </g>
      <g
         id="g87688"
         transform="matrix(1.25,0,0,-1.25,374.82403,550.05006)">
        <path
           d="m 0,0 2.118,0 -1.03,2.998 -0.024,0 L 0,0 Z m 0.174,5.016 1.841,0 3.058,-8.175 -1.867,0 -0.618,1.823 -3.055,0 -0.642,-1.823 -1.822,0 3.105,8.175 z"
           style="fill:#181817;fill-opacity:1;fill-rule:nonzero;stroke:none"
           id="path87690"
           inkscape:connector-curvature="0" />
      </g>
      <path
         d="m 382.0354,546.60256 2.03,0 0,7.39625 -2.03,0 0,-7.39625 z m 2.03,-1.145 -2.03,0 0,-1.67625 2.03,0 0,1.67625 z"
         style="fill:#181817;fill-opacity:1;fill-rule:nonzero;stroke:none"
         id="path87692"
         inkscape:connector-curvature="0" />
      <g
         id="g87694"
         transform="matrix(1.25,0,0,-1.25,385.80952,546.60306)">
        <path
           d="m 0,0 1.547,0 0,-1.098 0.025,0 c 0.296,0.746 1.098,1.259 1.886,1.259 0.116,0 0.254,-0.021 0.354,-0.057 l 0,-1.51 c -0.147,0.034 -0.388,0.057 -0.581,0.057 -1.189,0 -1.604,-0.86 -1.604,-1.901 l 0,-2.667 L 0,-5.917 0,0 Z"
           style="fill:#181817;fill-opacity:1;fill-rule:nonzero;stroke:none"
           id="path87696"
           inkscape:connector-curvature="0" />
      </g>
      <g
         id="g87698"
         transform="matrix(1.25,0,0,-1.25,396.24452,549.50631)">
        <path
           d="M 0,0 C -0.149,0.826 -0.504,1.258 -1.295,1.258 -2.324,1.258 -2.622,0.458 -2.644,0 L 0,0 Z m -2.644,-1.031 c 0.047,-1.03 0.55,-1.499 1.453,-1.499 0.654,0 1.179,0.402 1.282,0.769 l 1.432,0 c -0.46,-1.398 -1.432,-1.994 -2.771,-1.994 -1.866,0 -3.022,1.282 -3.022,3.115 0,1.774 1.226,3.123 3.022,3.123 2.016,0 2.988,-1.691 2.873,-3.514 l -4.269,0 z"
           style="fill:#181817;fill-opacity:1;fill-rule:nonzero;stroke:none"
           id="path87700"
           inkscape:connector-curvature="0" />
      </g>
      <g
         id="g87702"
         transform="matrix(1.25,0,0,-1.25,401.19365,551.59718)">
        <path
           d="m 0,0 c 0.01,-0.71 0.607,-0.994 1.25,-0.994 0.467,0 1.065,0.181 1.065,0.753 0,0.492 -0.679,0.663 -1.848,0.918 -0.937,0.206 -1.873,0.537 -1.873,1.581 0,1.51 1.304,1.898 2.575,1.898 1.291,0 2.484,-0.432 2.61,-1.889 l -1.545,0 C 2.187,2.897 1.705,3.068 1.122,3.068 0.757,3.068 0.216,3.001 0.216,2.519 c 0,-0.582 0.918,-0.662 1.848,-0.88 0.947,-0.218 1.877,-0.562 1.877,-1.662 0,-1.554 -1.356,-2.059 -2.703,-2.059 -1.377,0 -2.714,0.515 -2.781,2.082 L 0,0 Z"
           style="fill:#181817;fill-opacity:1;fill-rule:nonzero;stroke:none"
           id="path87704"
           inkscape:connector-curvature="0" />
      </g>
      <g
         id="g87706"
         transform="matrix(1.25,0,0,-1.25,418.59078,547.21806)">
        <path
           d="m 0,0 c -0.114,0.813 -0.891,1.435 -1.785,1.435 -1.614,0 -2.221,-1.378 -2.221,-2.807 0,-1.362 0.607,-2.735 2.221,-2.735 1.099,0 1.719,0.754 1.856,1.831 l 1.741,0 c -0.186,-2.04 -1.594,-3.343 -3.597,-3.343 -2.529,0 -4.017,1.888 -4.017,4.247 0,2.426 1.488,4.314 4.017,4.314 C 0.013,2.942 1.525,1.89 1.741,0 L 0,0 Z"
           style="fill:#181817;fill-opacity:1;fill-rule:nonzero;stroke:none"
           id="path87708"
           inkscape:connector-curvature="0" />
      </g>
      <path
         d="m 422.36915,546.60256 2.0325,0 0,7.39625 -2.0325,0 0,-7.39625 z m 2.0325,-1.145 -2.0325,0 0,-1.67625 2.0325,0 0,1.67625 z"
         style="fill:#181817;fill-opacity:1;fill-rule:nonzero;stroke:none"
         id="path87710"
         inkscape:connector-curvature="0" />
      <g
         id="g87712"
         transform="matrix(1.25,0,0,-1.25,433.08465,553.99893)">
        <path
           d="m 0,0 -1.544,0 0,0.825 -0.035,0 C -1.991,0.161 -2.701,-0.16 -3.387,-0.16 c -1.727,0 -2.165,0.973 -2.165,2.439 l 0,3.638 1.625,0 0,-3.341 c 0,-0.973 0.289,-1.455 1.044,-1.455 0.881,0 1.257,0.492 1.257,1.694 l 0,3.102 L 0,5.917 0,0 Z"
           style="fill:#181817;fill-opacity:1;fill-rule:nonzero;stroke:none"
           id="path87714"
           inkscape:connector-curvature="0" />
      </g>
      <g
         id="g87716"
         transform="matrix(1.25,0,0,-1.25,438.28278,547.93331)">
        <path
           d="m 0,0 c -1.068,0 -1.433,-0.913 -1.433,-1.888 0,-0.929 0.426,-1.9 1.433,-1.9 1.075,0 1.394,0.937 1.394,1.908 C 1.394,-0.913 1.051,0 0,0 m 1.419,-4.099 -0.025,0 C 1.018,-4.74 0.353,-5.013 -0.401,-5.013 c -1.79,0 -2.657,1.536 -2.657,3.169 0,1.59 0.88,3.069 2.619,3.069 0.698,0 1.387,-0.298 1.766,-0.878 l -0.01,0 0.023,0 0,2.975 1.625,0 0,-8.175 -1.546,0 0,0.754 z"
           style="fill:#181817;fill-opacity:1;fill-rule:nonzero;stroke:none"
           id="path87718"
           inkscape:connector-curvature="0" />
      </g>
      <g
         id="g87720"
         transform="matrix(1.25,0,0,-1.25,448.26478,550.38031)">
        <path
           d="m 0,0 c -0.275,-0.241 -0.844,-0.251 -1.349,-0.344 -0.502,-0.101 -0.961,-0.272 -0.961,-0.87 0,-0.606 0.469,-0.754 0.993,-0.754 1.273,0 1.317,1.007 1.317,1.362 L 0,0 Z m -3.755,1.205 c 0.094,1.522 1.456,1.977 2.784,1.977 1.178,0 2.598,-0.264 2.598,-1.68 l 0,-3.079 c 0,-0.539 0.056,-1.08 0.205,-1.318 l -1.648,0 c -0.055,0.184 -0.101,0.377 -0.114,0.572 -0.515,-0.536 -1.269,-0.732 -1.991,-0.732 -1.122,0 -2.014,0.559 -2.014,1.773 0,1.342 1.005,1.66 2.014,1.797 C -0.926,0.666 0,0.632 0,1.293 0,1.991 -0.479,2.095 -1.051,2.095 -1.67,2.095 -2.07,1.844 -2.128,1.205 l -1.627,0 z"
           style="fill:#181817;fill-opacity:1;fill-rule:nonzero;stroke:none"
           id="path87722"
           inkscape:connector-curvature="0" />
      </g>
      <g
         id="g87724"
         transform="matrix(1.25,0,0,-1.25,455.52302,547.93331)">
        <path
           d="m 0,0 c -1.068,0 -1.433,-0.913 -1.433,-1.888 0,-0.929 0.421,-1.9 1.433,-1.9 1.075,0 1.396,0.937 1.396,1.908 C 1.396,-0.913 1.053,0 0,0 m 1.42,-4.099 -0.024,0 C 1.018,-4.74 0.354,-5.013 -0.4,-5.013 c -1.79,0 -2.661,1.536 -2.661,3.169 0,1.59 0.887,3.069 2.626,3.069 0.698,0 1.383,-0.298 1.762,-0.878 l -0.013,0 0.025,0 0,2.975 1.623,0 0,-8.175 -1.542,0 0,0.754 z"
           style="fill:#181817;fill-opacity:1;fill-rule:nonzero;stroke:none"
           id="path87726"
           inkscape:connector-curvature="0" />
      </g>
      <g
         id="g87728"
         transform="matrix(1.25,0,0,-1.25,368.4689,533.53318)">
        <path
           d="m 0,0 0,1.745 c -1.56,-1.3 -3.611,-2.03 -5.763,-2.03 -2.498,0 -4.615,0.795 -6.122,2.299 -1.848,1.849 -2.634,4.035 -2.634,7.31 l 0,15.643 6.983,0 0,-14.788 c 0,-3.803 2.809,-4.097 3.67,-4.097 0.871,0 3.722,0.294 3.722,4.097 l 0,14.788 6.983,0 L 6.839,0 0,0 Z"
           style="fill:#181817;fill-opacity:1;fill-rule:nonzero;stroke:none"
           id="path87730"
           inkscape:connector-curvature="0" />
      </g>
      <g
         id="g87732"
         transform="matrix(1.25,0,0,-1.25,440.0014,511.22593)">
        <path
           d="m 0,0 c 0.678,1.502 2.013,2.325 3.757,2.325 1.747,0 3.079,-0.823 3.75,-2.312 0.313,-0.733 0.453,-1.29 0.512,-2.092 l -8.525,0 C -0.444,-1.277 -0.304,-0.725 0,0 m 4.322,-11.792 c -2.86,0.062 -4.686,1.826 -4.845,4.674 l 15.459,0 0,3.161 c 0,7.424 -4.389,12.222 -11.179,12.222 -6.893,0 -11.173,-4.995 -11.173,-13.027 0,-12.341 8.375,-13.068 12.241,-13.068 l 33.363,0 c 0.246,1.993 0.44,4.003 0.537,6.038 l -34.403,0 z"
           style="fill:#181817;fill-opacity:1;fill-rule:nonzero;stroke:none"
           id="path87734"
           inkscape:connector-curvature="0" />
      </g>
      <g
         id="g87736"
         transform="matrix(1.25,0,0,-1.25,395.34965,525.93031)">
        <path
           d="m 0,0 c -3.166,0 -3.768,2.356 -3.768,6.706 0,4.321 0.602,6.663 3.768,6.663 3.166,0 3.769,-2.342 3.769,-6.663 C 3.769,2.356 3.166,0 0,0 m 8.116,17.385 c -1.473,1.471 -3.832,2.349 -6.315,2.349 -2.341,0 -4.102,-0.592 -5.569,-1.893 l 0,10.668 -6.98,0 0,-34.591 6.79,0 0,1.742 c 1.56,-1.413 3.334,-2.027 5.759,-2.027 2.483,0 4.842,0.878 6.315,2.348 2.631,2.634 2.631,7.121 2.631,10.725 0,3.584 0,8.044 -2.631,10.679"
           style="fill:#181817;fill-opacity:1;fill-rule:nonzero;stroke:none"
           id="path87738"
           inkscape:connector-curvature="0" />
      </g>
      <g
         id="g87740"
         transform="matrix(1.25,0,0,-1.25,422.38427,509.38418)">
        <path
           d="m 0,0 0,-11.453 c 0,-1.258 0.531,-1.823 1.722,-1.823 l 2.158,0 0.083,-0.3 c 0.55,-1.976 1.361,-3.685 2.422,-5.078 l 0.495,-0.655 -6.291,0 c -5.236,0 -7.575,3.755 -7.575,7.477 l 0,11.832 -2.095,0 0,5.51 2.095,0 0,5.334 L 0,12.96 0,5.51 7.469,5.51 7.036,4.876 C 6.141,3.542 5.432,1.999 4.935,0.293 L 4.85,0 0,0 Z"
           style="fill:#181817;fill-opacity:1;fill-rule:nonzero;stroke:none"
           id="path87742"
           inkscape:connector-curvature="0" />
      </g>
      <g
         id="g87744"
         transform="matrix(1.25,0,0,-1.25,295.16228,513.26818)">
        <path
           d="m 0,0 c 1.403,-0.016 2.562,-0.44 3.4,-1.204 l 0.002,0 12.455,-12.452 c 0.127,-0.127 2.191,-2.546 7.317,-2.546 l 5.981,0 c 2.882,0 6.053,0.663 8.386,2.916 2.283,1.867 3.594,4.539 3.594,7.737 0,3.231 -0.92,5.741 -2.737,7.465 -1.56,1.45 -3.618,2.29 -6.674,2.711 l -3.987,0.572 c -1.188,0.162 -2.249,0.609 -2.91,1.22 -0.751,0.702 -0.865,1.631 -0.865,2.123 0,2.38 1.841,3.862 4.809,3.862 2.14,0 4.605,-0.265 6.644,-2.212 l 0.287,-0.275 4.754,4.7 -0.297,0.29 c -2.899,2.802 -6.352,4.052 -11.196,4.052 -7.396,0 -12.173,-4.184 -12.173,-10.655 0,-2.957 0.829,-5.223 2.542,-6.937 1.565,-1.513 3.783,-2.464 6.777,-2.908 l 4.07,-0.567 c 1.609,-0.243 2.237,-0.582 2.775,-1.082 0.598,-0.558 0.915,-1.441 0.915,-2.548 0,-1.965 -1.057,-3.153 -2.28,-3.876 -0.667,-0.332 -1.446,-0.523 -2.332,-0.544 l -6.228,0 c -1.344,0.031 -2.454,0.435 -3.275,1.155 L 7.322,3.431 7.319,3.426 C 5.021,5.438 2.008,6.038 -0.746,6.038 l -5.437,0 C -6.485,4.05 -6.69,2.033 -6.842,0 L 0,0 Z"
           style="fill:#181817;fill-opacity:1;fill-rule:nonzero;stroke:none"
           id="path87746"
           inkscape:connector-curvature="0" />
      </g>
    </g>
    <g
       id="g90189">
      <g
         id="g87888"
         transform="matrix(1.25,0,0,-1.25,-649.68985,713.23543)">
        <path
           d="m 0,0 5.68,0 0,-2.422 0.054,0 c 1.055,1.766 2.961,2.938 5.086,2.938 2.258,0 4.243,-0.711 5.188,-2.883 1.414,1.883 3.156,2.883 5.554,2.883 5.68,0 6.282,-4.282 6.282,-7.672 l 0,-10.625 -5.821,0 0,10.445 c 0,1.922 -0.929,3.047 -2.453,3.047 -2.484,0 -2.711,-1.914 -2.711,-4.789 l 0,-8.703 -5.843,0 0,10.101 c 0,2.102 -0.618,3.391 -2.203,3.391 -2.086,0 -2.977,-1.211 -2.977,-4.836 l 0,-8.656 -5.836,0 L 0,0 Z"
           style="fill:#444141;fill-opacity:1;fill-rule:nonzero;stroke:none"
           id="path87890"
           inkscape:connector-curvature="0" />
      </g>
      <g
         id="g87892"
         transform="matrix(1.25,0,0,-1.25,-580.9496,730.54981)">
        <path
           d="m 0,0 c -2.648,0 -3.516,2.031 -3.516,5.156 0,3.664 1.993,4.758 3.578,4.758 C 2.609,9.914 3.5,7.406 3.5,5.156 3.5,2.711 2.609,0 0,0 m 1.844,14.367 c -2.188,0 -3.907,-0.844 -5.086,-2.469 l -0.086,0 0,5.641 -5.813,0 0,-21.469 5.547,0 0,2.063 0.078,0 c 1.133,-1.688 2.829,-2.563 4.891,-2.563 5.594,0 7.961,4.774 7.961,9.782 0,4.632 -2.477,9.015 -7.492,9.015"
           style="fill:#444141;fill-opacity:1;fill-rule:nonzero;stroke:none"
           id="path87894"
           inkscape:connector-curvature="0" />
      </g>
      <g
         id="g87896"
         transform="matrix(1.25,0,0,-1.25,-611.5551,734.93456)">
        <path
           d="m 0,0 c 0,-0.398 -0.312,-0.727 -0.711,-0.727 -0.414,0 -0.734,0.329 -0.734,0.727 l 0,17.156 c 0,0.406 0.32,0.75 0.734,0.75 0.399,0 0.711,-0.344 0.711,-0.75 L 0,0 Z"
           style="fill:#444141;fill-opacity:1;fill-rule:nonzero;stroke:none"
           id="path87898"
           inkscape:connector-curvature="0" />
      </g>
      <g
         id="g87900"
         transform="matrix(1.25,0,0,-1.25,-607.99072,736.06743)">
        <path
           d="m 0,0 c 0,-0.398 -0.336,-0.734 -0.727,-0.734 -0.421,0 -0.765,0.336 -0.765,0.734 l 0,18.977 c 0,0.398 0.344,0.734 0.765,0.734 C -0.336,19.711 0,19.375 0,18.977 L 0,0 Z"
           style="fill:#444141;fill-opacity:1;fill-rule:nonzero;stroke:none"
           id="path87902"
           inkscape:connector-curvature="0" />
      </g>
      <g
         id="g87904"
         transform="matrix(1.25,0,0,-1.25,-604.4751,736.65331)">
        <path
           d="m 0,0 c 0,-0.398 -0.328,-0.734 -0.719,-0.734 -0.422,0 -0.765,0.336 -0.765,0.734 l 0,19.906 c 0,0.422 0.343,0.742 0.765,0.742 0.391,0 0.719,-0.32 0.719,-0.742 L 0,0 Z"
           style="fill:#444141;fill-opacity:1;fill-rule:nonzero;stroke:none"
           id="path87906"
           inkscape:connector-curvature="0" />
      </g>
      <g
         id="g87908"
         transform="matrix(1.25,0,0,-1.25,-600.95947,736.65331)">
        <path
           d="m 0,0 c 0,-0.398 -0.32,-0.734 -0.727,-0.734 -0.406,0 -0.75,0.336 -0.75,0.734 l 0,19.906 c 0,0.422 0.344,0.742 0.75,0.742 C -0.32,20.648 0,20.328 0,19.906 L 0,0 Z"
           style="fill:#444141;fill-opacity:1;fill-rule:nonzero;stroke:none"
           id="path87910"
           inkscape:connector-curvature="0" />
      </g>
      <g
         id="g87912"
         transform="matrix(1.25,0,0,-1.25,-597.43398,736.06743)">
        <path
           d="m 0,0 c 0,-0.398 -0.312,-0.734 -0.734,-0.734 -0.391,0 -0.727,0.336 -0.727,0.734 l 0,18.977 c 0,0.398 0.336,0.734 0.727,0.734 C -0.312,19.711 0,19.375 0,18.977 L 0,0 Z"
           style="fill:#444141;fill-opacity:1;fill-rule:nonzero;stroke:none"
           id="path87914"
           inkscape:connector-curvature="0" />
      </g>
      <g
         id="g87916"
         transform="matrix(1.25,0,0,-1.25,-593.8891,734.93456)">
        <path
           d="m 0,0 c 0,-0.398 -0.312,-0.727 -0.734,-0.727 -0.407,0 -0.743,0.329 -0.743,0.727 l 0,17.156 c 0,0.406 0.336,0.75 0.743,0.75 0.422,0 0.734,-0.344 0.734,-0.75 L 0,0 Z"
           style="fill:#444141;fill-opacity:1;fill-rule:nonzero;stroke:none"
           id="path87918"
           inkscape:connector-curvature="0" />
      </g>
    </g>
  </g>
</svg>
